<?xml version="1.0" standalone="no"?><!DOCTYPE svg PUBLIC "-//W3C//DTD SVG 1.1//EN" "http://www.w3.org/Graphics/SVG/1.1/DTD/svg11.dtd"><svg t="1577069122832" class="icon" viewBox="0 0 1024 1024" version="1.1" xmlns="http://www.w3.org/2000/svg" p-id="27430" xmlns:xlink="http://www.w3.org/1999/xlink" width="200" height="200"><defs><style type="text/css"></style></defs><path d="M868.4 707.2V526.6c0-22.6-18.4-41-41-41H689.8v-33.8h95.3V302H496v149.7h95.3v33.8H431.1l10.1-98.7c2.2-21.6-4.9-43.3-19.5-59.4S386.3 302 364.6 302H239.7c-21.7 0-42.6 9.3-57.1 25.4-14.6 16.1-21.7 37.8-19.5 59.4l6.6 64.8h34.2l-7-68.3c-1.3-12.3 2.6-24 10.9-33.2 8.3-9.1 19.6-14.2 31.9-14.2h124.9c12.3 0 23.7 5 31.9 14.2 8.3 9.1 12.1 20.9 10.9 33.2L397 485.5H196.8c-8.5 0-16.4 2.6-23 7.1-10.9 7.4-18 19.8-18 33.9v248.7h712.6v-34H189.8V526.6c0-3.9 3.1-7 7-7h630.6c3.9 0 7 3.1 7 7v180.7h34zM625.3 485.6v-33.8h30.5v33.8h-30.5zM302.1 291.4c40.4 0 73.2-32.8 73.2-73.2S342.4 145 302.1 145s-73.2 32.8-73.2 73.2 32.8 73.2 73.2 73.2z m0-112.4c21.6 0 39.2 17.6 39.2 39.2s-17.6 39.2-39.2 39.2-39.2-17.6-39.2-39.2 17.6-39.2 39.2-39.2z" fill="" p-id="27431"></path><path d="M718.2 552.5h66.9v66.9h-66.9zM607.1 552.5H674v66.9h-66.9zM496 552.5h66.9v66.9H496z" fill="" p-id="27432"></path></svg>