<svg t="1577069115624" class="icon" viewBox="320 0 1024 1024" version="1.1" xmlns="http://www.w3.org/2000/svg" p-id="27194" xmlns:xlink="http://www.w3.org/1999/xlink" ><defs><style type="text/css"></style></defs><path d="M1103.075556 403.076741c0-121.362963-97.09037-218.453333-218.453334-218.453334s-218.453333 97.09037-218.453333 218.453334c0 82.526815 43.690667 152.917333 111.653926 189.326222-92.235852 36.408889-162.62637 116.508444-182.044445 218.453333-2.427259 12.136296 4.854519 26.699852 19.418074 29.127111h2.42726c12.136296 0 21.845333-7.281778 24.272592-19.418074 21.845333-114.081185 121.362963-196.608 237.871408-199.035259H884.622222c121.372444 0 218.453333-97.09037 218.453334-218.453333z m-388.352 0c0-94.663111 75.245037-169.908148 169.908148-169.908148s169.908148 75.245037 169.908148 169.908148c0 92.235852-75.245037 167.480889-167.480889 169.908148h-7.281778c-92.235852-2.427259-165.05363-77.672296-165.053629-169.908148z m485.451851 242.725926h-194.18074c-14.563556 0-24.272593 9.709037-24.272593 24.272592v145.635556c0 14.563556 9.709037 24.272593 24.272593 24.272592h194.18074c14.563556 0 24.272593-9.709037 24.272593-24.272592v-145.635556c-0.009481-12.136296-9.718519-24.272593-24.272593-24.272592z m-24.282074 145.635555h-145.635555v-97.09037h145.635555v97.09037z m0 0" p-id="27195"></path><path d="M1078.812444 767.16563h24.272593c14.563556 0 24.272593-9.709037 24.272593-24.272593 0-14.563556-9.709037-24.272593-24.272593-24.272593h-24.272593c-14.563556 0-24.272593 9.709037-24.272592 24.272593-0.009481 14.563556 12.136296 24.272593 24.272592 24.272593z m0 0" p-id="27196"></path></svg>