<?xml version="1.0" standalone="no"?><!DOCTYPE svg PUBLIC "-//W3C//DTD SVG 1.1//EN" "http://www.w3.org/Graphics/SVG/1.1/DTD/svg11.dtd"><svg t="1577069128526" class="icon" viewBox="0 0 1024 1024" version="1.1" xmlns="http://www.w3.org/2000/svg" p-id="27683" xmlns:xlink="http://www.w3.org/1999/xlink" width="200" height="200"><defs><style type="text/css"></style></defs><path d="M759.2 937.8H266.5v-65.7h492.6v65.7z m-472.7-20h452.6v-25.7H286.5v25.7z" p-id="27684"></path><path d="M738.8 892.3H287v-65.7h451.8v65.7z m-431.8-20h411.8v-25.7H307v25.7z" p-id="27685"></path><path d="M563 846.5H462.7V635H563v211.5z m-80.3-20H543V655h-60.2v171.5zM809.3 305.4H216.4v-71.9h592.9v71.9z m-572.9-20h552.9v-31.9H236.4v31.9z" p-id="27686"></path><path d="M548.2 655h-70.6V285.4h70.6V655z m-50.7-20h30.6V305.4h-30.6V635zM548.2 253.5h-70.6v-92.2h70.6v92.2z m-50.7-20h30.6v-52.2h-30.6v52.2z" p-id="27687"></path><path d="M512.9 180c-34.8 0-63.1-28.3-63.1-63.1s28.3-63.1 63.1-63.1S576 82.1 576 116.9c-0.1 34.8-28.4 63.1-63.1 63.1z m0-106.1c-23.7 0-43.1 19.3-43.1 43.1s19.3 43.1 43.1 43.1S556 140.8 556 117s-19.4-43.1-43.1-43.1z" p-id="27688"></path><path d="M512.9 102.8c-4.3 0-8.5 1.9-11.3 5.6-4.7 6.2-3.5 15.1 2.7 19.8 2.5 1.9 5.5 2.9 8.5 2.9 4.3 0 8.5-1.9 11.3-5.6 4.7-6.2 3.5-15.1-2.7-19.8-2.6-1.9-5.6-2.9-8.5-2.9zM306.2 617.9h-168l-58.9-90.2 148-252.6L365 527.8l-58.8 90.1z m-157.2-20h146.4l46.4-71-115.2-211.2-123.9 211.4 46.3 70.8z" p-id="27689"></path><path d="M96.3 517.4h262.4v20H96.3z" p-id="27690"></path><path d="M151.636 602.848l46.555-80.51 17.314 10.012-46.555 80.51zM194.64 602.853l46.555-80.51 17.314 10.012-46.555 80.51zM879.2 617.9H711.1l-58.9-90.2 148-252.6L938 527.8l-58.8 90.1z m-157.2-20h146.4l46.4-71-115.2-211.2-123.9 211.4 46.3 70.8z" p-id="27691"></path><path d="M669.3 517.4h262.4v20H669.3z" p-id="27692"></path><path d="M828.949 602.834l46.555-80.51 17.314 10.011-46.555 80.51zM585.827 876.783l30.216-45.72 16.686 11.028-30.216 45.72zM628.831 876.786l30.217-45.72 16.686 11.029-30.217 45.72zM356.125 922.32l30.216-45.72 16.686 11.028-30.216 45.72z" p-id="27693"></path></svg>