<?xml version="1.0" standalone="no"?><!DOCTYPE svg PUBLIC "-//W3C//DTD SVG 1.1//EN" "http://www.w3.org/Graphics/SVG/1.1/DTD/svg11.dtd"><svg t="1577069105872" class="icon" viewBox="0 0 1024 1024" version="1.1" xmlns="http://www.w3.org/2000/svg" p-id="26946" xmlns:xlink="http://www.w3.org/1999/xlink" width="200" height="200"><defs><style type="text/css"></style></defs><path d="M326.217143 938.666667c-161.645714 0-288.426667-66.072381-288.426667-150.430477V235.76381c0-84.358095 126.780952-150.430476 288.426667-150.430477s288.426667 66.072381 288.426667 150.430477v100.693333c0 6.826667-5.36381 12.190476-12.190477 12.190476s-12.190476-5.36381-12.190476-12.190476V235.76381c0-68.266667-120.929524-126.049524-264.045714-126.049524S62.171429 167.497143 62.171429 235.76381v552.47238c0 68.266667 120.929524 126.049524 264.045714 126.049524 52.906667 0 104.350476-7.558095 147.992381-22.186666a12.190476 12.190476 0 0 1 7.558095 23.161904c-46.08 15.36-99.961905 23.405714-155.550476 23.405715z" p-id="26947"></path><path d="M326.217143 494.933333c-161.645714 0-288.426667-66.072381-288.426667-150.430476 0-6.826667 5.36381-12.190476 12.190476-12.190476s12.190476 5.36381 12.190477 12.190476c0 68.266667 120.929524 126.049524 264.045714 126.049524 26.331429 0 52.419048-1.950476 77.287619-5.607619a12.190476 12.190476 0 1 1 3.657143 24.137143c-26.331429 3.900952-53.394286 5.851429-80.944762 5.851428zM326.217143 605.866667c-161.645714 0-288.426667-66.072381-288.426667-150.430477 0-6.826667 5.36381-12.190476 12.190476-12.190476s12.190476 5.36381 12.190477 12.190476c0 68.266667 120.929524 126.049524 264.045714 126.049524 11.215238 0 22.186667-0.24381 32.914286-0.975238 6.826667-0.975238 12.434286 4.632381 12.921904 11.459048 0.487619 6.826667-4.632381 12.434286-11.459047 12.921905-11.215238 0.487619-22.674286 0.975238-34.377143 0.975238zM326.217143 716.8c-161.645714 0-288.426667-66.072381-288.426667-150.430476 0-6.826667 5.36381-12.190476 12.190476-12.190476s12.190476 5.36381 12.190477 12.190476c0 68.266667 120.929524 126.049524 264.045714 126.049524 10.971429 0 21.699048-0.24381 32.426667-0.975238 7.070476-0.731429 12.434286 4.632381 12.921904 11.459047 0.487619 6.826667-4.632381 12.434286-11.459047 12.921905-11.215238 0.487619-22.430476 0.975238-33.889524 0.975238zM326.217143 827.733333c-161.645714 0-288.426667-66.072381-288.426667-150.430476 0-6.826667 5.36381-12.190476 12.190476-12.190476s12.190476 5.36381 12.190477 12.190476c0 68.266667 120.929524 126.049524 264.045714 126.049524 23.649524 0 47.299048-1.462857 69.973333-4.632381 6.826667-1.219048 12.921905 3.900952 13.653334 10.48381s-3.900952 12.921905-10.48381 13.653333c-23.893333 3.169524-48.274286 4.87619-73.142857 4.87619z" p-id="26948"></path><path d="M326.217143 385.950476c-161.645714 0-288.426667-66.072381-288.426667-150.430476s126.780952-150.430476 288.426667-150.430476S614.64381 151.161905 614.64381 235.52c0 84.601905-126.780952 150.430476-288.426667 150.430476z m0-276.23619C183.100952 109.714286 62.171429 167.497143 62.171429 235.76381s120.929524 126.049524 264.045714 126.049523 264.045714-57.782857 264.045714-126.049523S469.333333 109.714286 326.217143 109.714286zM681.447619 938.666667c-167.984762 0-304.761905-136.777143-304.761905-304.761905s136.777143-304.761905 304.761905-304.761905 304.761905 136.777143 304.761905 304.761905-136.533333 304.761905-304.761905 304.761905z m0-585.142857c-154.575238 0-280.380952 125.805714-280.380952 280.380952s125.805714 280.380952 280.380952 280.380952 280.380952-125.805714 280.380952-280.380952-125.805714-280.380952-280.380952-280.380952z" p-id="26949"></path><path d="M681.447619 598.064762a11.459048 11.459048 0 0 1-8.533333-3.657143l-59.245715-59.245714c-4.87619-4.87619-4.87619-12.434286 0-17.310476s12.434286-4.87619 17.310477 0l50.468571 50.468571 50.468571-50.468571c4.87619-4.87619 12.434286-4.87619 17.310477 0s4.87619 12.434286 0 17.310476l-59.245715 59.245714a11.459048 11.459048 0 0 1-8.533333 3.657143zM760.685714 628.540952h-158.232381c-6.826667 0-12.190476-5.36381-12.190476-12.190476s5.36381-12.190476 12.190476-12.190476h158.232381c6.826667 0 12.190476 5.36381 12.190476 12.190476s-5.607619 12.190476-12.190476 12.190476zM760.685714 689.249524h-158.232381c-6.826667 0-12.190476-5.36381-12.190476-12.190476s5.36381-12.190476 12.190476-12.190477h158.232381c6.826667 0 12.190476 5.36381 12.190476 12.190477s-5.607619 12.190476-12.190476 12.190476z" p-id="26950"></path><path d="M681.447619 753.127619c-6.826667 0-12.190476-5.36381-12.190476-12.190476v-155.062857c0-6.826667 5.36381-12.190476 12.190476-12.190476s12.190476 5.36381 12.190476 12.190476v155.062857c0 6.826667-5.36381 12.190476-12.190476 12.190476z" p-id="26951"></path><path d="M841.630476 777.264762c-2.681905 0-5.36381-0.975238-7.801905-2.681905a12.04419 12.04419 0 0 1-1.706666-17.066667c51.2-62.415238 58.514286-151.161905 18.041905-220.891428-40.228571-69.729524-120.685714-107.76381-200.411429-94.841905a11.946667 11.946667 0 0 1-13.897143-9.99619c-0.975238-6.582857 3.413333-12.921905 9.996191-13.897143 89.478095-14.872381 180.175238 28.281905 225.523809 106.544762 45.348571 78.506667 37.059048 178.468571-20.48 248.685714-2.194286 2.681905-5.607619 4.144762-9.264762 4.144762zM681.935238 853.089524c-77.531429 0-150.918095-41.20381-190.415238-109.470476-45.348571-78.506667-37.059048-178.468571 20.48-248.685715 4.144762-5.12 11.946667-6.095238 17.066667-1.706666 5.12 4.144762 6.095238 11.946667 1.706666 17.066666-51.2 62.415238-58.514286 151.161905-18.041904 220.891429 40.228571 69.729524 120.685714 107.76381 200.411428 94.841905 6.826667-0.975238 12.921905 3.413333 13.897143 9.99619 0.975238 6.582857-3.413333 12.921905-9.99619 13.897143-11.702857 2.194286-23.405714 3.169524-35.108572 3.169524z" p-id="26952"></path><path d="M477.379048 298.422857a12.312381 12.312381 0 0 1-5.607619-23.161905c22.918095-11.459048 36.571429-25.35619 37.546666-38.278095 0.975238-12.921905-10.971429-24.380952-20.967619-31.451428-38.278095-27.062857-115.809524-41.691429-193.340952-36.571429a12.385524 12.385524 0 0 1-12.921905-11.459048c-0.487619-6.826667 4.632381-12.434286 11.459048-12.921904 83.870476-5.607619 165.790476 10.48381 208.944762 40.96 27.550476 19.504762 32.182857 39.740952 31.207619 53.150476-1.219048 15.60381-10.971429 38.278095-50.956191 58.270476a8.533333 8.533333 0 0 1-5.363809 1.462857zM325.729524 327.92381c-71.68 0-138.48381-15.60381-176.030476-42.179048-27.794286-19.748571-32.182857-39.740952-31.207619-53.150476 1.219048-15.60381 10.971429-38.521905 50.95619-58.270476 6.095238-3.169524 13.409524-0.731429 16.335238 5.363809s0.487619 13.409524-5.363809 16.335238c-22.918095 11.459048-36.571429 25.35619-37.546667 38.278095-0.975238 12.921905 10.971429 24.380952 20.967619 31.451429 38.278095 27.062857 115.809524 41.691429 193.340952 36.571429 6.826667 0 12.434286 4.632381 12.921905 11.459047s-4.632381 12.434286-11.459047 12.921905c-10.971429 0.731429-22.186667 1.219048-32.914286 1.219048z" p-id="26953"></path></svg>