<?xml version="1.0" standalone="no"?><!DOCTYPE svg PUBLIC "-//W3C//DTD SVG 1.1//EN" "http://www.w3.org/Graphics/SVG/1.1/DTD/svg11.dtd"><svg t="1577069118936" class="icon" viewBox="0 0 1024 1024" version="1.1" xmlns="http://www.w3.org/2000/svg" p-id="27312" xmlns:xlink="http://www.w3.org/1999/xlink" width="200" height="200"><defs><style type="text/css"></style></defs><path d="M787.3 161L860 358.7c0.1 0.2 0.1 0.4 0.2 0.6l36.3 98.8C891.4 512.4 845.6 555 790 555c-17.5 0-34.2-4.1-49.6-12.2-14.7-7.7-27.7-19-37.4-32.6-12-16.7-31.4-26.7-52-26.7s-40 9.9-52 26.7c-9.7 13.6-22.7 24.8-37.4 32.6-15.4 8.1-32.1 12.2-49.6 12.2s-34.2-4.1-49.6-12.2c-14.7-7.7-27.7-19-37.4-32.6-12-16.7-31.4-26.7-52-26.7s-40 9.9-52 26.7c-9.7 13.6-22.7 24.8-37.4 32.6-15.4 8.1-32.1 12.2-49.6 12.2-55.6 0-101.4-42.6-106.5-96.9l36.3-98.8L236.7 161h550.6M832 97H192l-88.3 240.2L63 448c0 94.4 76.6 171 171 171 57.3 0 108-28.2 139-71.4 31 43.2 81.7 71.4 139 71.4s108-28.2 139-71.4c31 43.2 81.7 71.4 139 71.4 94.4 0 171-76.6 171-171l-40.7-110.7L832 97z" p-id="27313"></path><path d="M832 577v319H640V664H384v232H192V577h-64v383h768V577h-64zM424 896V704h176v192H424z" p-id="27314"></path></svg>